<?xml version="1.0" standalone="no"?>
<!DOCTYPE svg PUBLIC "-//W3C//DTD SVG 20010904//EN"
 "http://www.w3.org/TR/2001/REC-SVG-20010904/DTD/svg10.dtd">
<svg version="1.0" xmlns="http://www.w3.org/2000/svg"
 width="512.000000pt" height="512.000000pt" viewBox="0 0 512.000000 512.000000"
 preserveAspectRatio="xMidYMid meet">

<g transform="translate(0.000000,512.000000) scale(0.100000,-0.100000)"
fill="#000000" stroke="none">
<path d="M415 4626 c-41 -18 -83 -69 -90 -109 -3 -18 -4 -478 -3 -1024 3 -984
3 -992 24 -1019 11 -15 33 -37 48 -48 27 -21 33 -21 1046 -21 1013 0 1019 0
1046 21 15 11 37 33 48 48 21 27 21 33 21 1046 0 1013 0 1019 -21 1046 -11 15
-33 37 -48 48 -27 21 -35 21 -1034 23 -822 2 -1013 0 -1037 -11z m1075 -309
c0 -1 -9 -30 -21 -62 -46 -132 -35 -284 32 -422 118 -247 416 -372 673 -283
33 11 61 18 63 17 2 -2 2 -152 1 -332 l-3 -328 -125 105 c-476 398 -601 497
-635 504 -78 14 -87 9 -466 -307 -197 -164 -361 -299 -364 -299 -3 0 -5 317
-5 705 l0 705 425 0 c234 0 425 -1 425 -3z m584 -9 c55 -16 138 -99 154 -154
28 -94 8 -169 -63 -239 -51 -52 -102 -75 -165 -75 -124 0 -240 116 -240 240 0
63 23 114 75 165 70 71 145 90 239 63z m-377 -1370 l255 -213 -256 -3 c-141
-1 -371 -1 -512 0 l-256 3 253 212 c140 117 256 212 257 213 2 0 119 -96 259
-212z"/>
<path d="M2975 4626 c-67 -29 -105 -106 -91 -181 9 -47 59 -102 104 -115 25
-8 305 -10 874 -8 827 3 837 3 864 24 53 39 69 71 69 134 0 63 -16 95 -69 134
-27 21 -36 21 -874 23 -689 2 -853 0 -877 -11z"/>
<path d="M2975 3666 c-67 -29 -105 -106 -91 -181 9 -47 59 -102 104 -115 25
-8 305 -10 874 -8 827 3 837 3 864 24 53 39 69 71 69 134 0 63 -16 95 -69 134
-27 21 -36 21 -874 23 -689 2 -853 0 -877 -11z"/>
<path d="M2975 2706 c-67 -29 -105 -106 -91 -181 9 -47 59 -102 104 -115 25
-8 305 -10 874 -8 827 3 837 3 864 24 53 39 69 71 69 134 0 63 -16 95 -69 134
-27 21 -36 21 -874 23 -689 2 -853 0 -877 -11z"/>
<path d="M415 1746 c-67 -29 -105 -106 -91 -181 9 -47 59 -102 104 -115 26 -8
689 -10 2154 -8 l2117 3 27 21 c53 39 69 71 69 134 0 63 -16 95 -69 134 l-27
21 -2127 2 c-1753 2 -2132 0 -2157 -11z"/>
<path d="M415 786 c-67 -29 -105 -106 -91 -181 9 -47 59 -102 104 -115 26 -8
689 -10 2154 -8 l2117 3 27 21 c53 39 69 71 69 134 0 63 -16 95 -69 134 l-27
21 -2127 2 c-1753 2 -2132 0 -2157 -11z"/>
</g>
</svg>
