<?xml version="1.0" standalone="no"?>
<!DOCTYPE svg PUBLIC "-//W3C//DTD SVG 20010904//EN"
 "http://www.w3.org/TR/2001/REC-SVG-20010904/DTD/svg10.dtd">
<svg version="1.0" xmlns="http://www.w3.org/2000/svg"
 width="700.000000pt" height="700.000000pt" viewBox="0 0 700.000000 700.000000"
 preserveAspectRatio="xMidYMid meet">
<metadata>
Created by potrace 1.14, written by Peter Selinger 2001-2017
</metadata>
<g transform="translate(0.000000,700.000000) scale(0.100000,-0.100000)"
fill="#000000" stroke="none">
<path d="M3860 6879 c-123 -57 -223 -81 -366 -86 -156 -6 -255 10 -384 64 -47
19 -97 37 -111 40 -30 6 -168 -44 -352 -128 -312 -141 -550 -309 -650 -459
-20 -30 -37 -52 -37 -49 0 3 -151 -24 -336 -61 l-337 -66 -109 -309 -109 -310
-230 -150 c-127 -82 -232 -152 -234 -155 -2 -3 -22 -161 -45 -350 -22 -190
-47 -357 -54 -371 -7 -14 -84 -115 -170 -223 l-158 -198 55 -247 55 -246 -100
-213 c-56 -117 -101 -218 -101 -225 0 -7 73 -146 162 -309 l162 -297 -61 -110
-61 -109 61 -139 c334 -762 947 -1408 1668 -1759 360 -175 713 -276 1112 -320
215 -23 624 -15 825 16 532 81 988 260 1424 557 515 351 934 839 1206 1408 40
83 80 171 90 197 l17 47 -64 107 -65 107 173 296 c96 163 174 301 174 308 0 6
-44 103 -97 215 -53 112 -96 212 -95 224 1 11 24 118 52 238 27 120 50 224 50
231 0 7 -76 110 -168 227 l-168 213 -37 354 c-21 195 -40 357 -42 361 -3 4
-110 76 -239 159 l-234 152 -103 300 c-57 166 -107 305 -110 310 -3 5 -162 37
-353 70 l-348 60 -82 83 c-166 167 -365 306 -611 427 -152 74 -348 150 -383
148 -10 0 -46 -14 -82 -30z m-643 -171 c63 -17 107 -21 233 -22 177 0 272 18
418 81 l84 35 114 -42 c304 -113 592 -296 804 -511 l96 -97 336 -58 337 -57
71 -206 c39 -113 86 -247 103 -297 l31 -91 230 -150 231 -150 7 -44 c3 -24 21
-182 39 -351 l32 -307 164 -207 c89 -114 163 -208 163 -209 0 -1 -25 -108 -55
-238 l-55 -236 95 -197 c52 -108 95 -203 95 -211 0 -8 -79 -148 -175 -313
l-175 -298 65 -109 c36 -59 65 -115 65 -123 0 -25 -173 -367 -243 -482 -478
-782 -1223 -1334 -2082 -1544 -675 -164 -1398 -105 -2032 166 -725 311 -1332
895 -1701 1637 -32 65 -69 143 -82 174 l-22 56 61 112 62 112 -165 304 -166
303 100 212 100 212 -54 241 -54 240 164 205 c90 112 164 212 164 221 0 64 83
678 93 687 7 6 108 73 225 149 117 76 216 145 221 154 5 9 52 142 106 296 54
154 99 282 101 284 2 2 135 29 296 61 398 78 371 69 414 138 20 31 64 83 96
114 123 119 403 281 663 383 66 26 124 51 128 55 5 4 46 -8 92 -26 46 -19 119
-44 162 -56z"/>
<path d="M2939 6589 c-235 -88 -441 -209 -542 -319 -61 -66 -67 -77 -39 -87
130 -44 342 -145 342 -163 0 -3 -46 -21 -102 -39 -375 -122 -760 -315 -926
-466 l-54 -49 46 -11 c26 -7 49 -15 53 -18 3 -4 -19 -33 -49 -65 l-55 -57 8
-70 c18 -151 78 -330 115 -342 7 -2 28 25 48 61 128 229 370 480 626 649 242
159 578 282 855 312 33 3 72 9 88 11 l27 6 -2 286 -3 287 -51 7 c-75 11 -204
54 -245 82 l-35 24 -105 -39z"/>
<path d="M3900 6578 c-48 -25 -108 -45 -165 -57 l-90 -18 -3 -286 -2 -286 47
-6 c409 -56 725 -174 1014 -381 186 -133 414 -382 526 -575 25 -44 51 -78 57
-76 37 12 102 214 112 347 l6 75 -51 50 c-28 27 -51 52 -51 56 0 10 49 29 78
29 26 1 25 3 -28 52 -161 151 -545 345 -927 469 -57 19 -103 36 -103 40 0 18
214 121 324 156 17 5 31 14 33 20 2 6 -22 39 -53 72 -103 112 -330 244 -554
324 l-95 33 -75 -38z"/>
<path d="M1670 5931 l-144 -27 -88 -204 c-85 -197 -97 -231 -80 -230 39 3 114
69 292 258 110 117 200 217 200 223 0 12 -14 11 -180 -20z"/>
<path d="M5153 5947 c-3 -5 17 -32 44 -60 27 -29 120 -127 206 -218 105 -112
169 -172 197 -184 22 -10 43 -15 47 -12 5 5 -156 402 -172 425 -7 9 -317 57
-322 49z"/>
<path d="M3328 5789 c-463 -45 -915 -276 -1219 -623 -497 -567 -607 -1367
-279 -2042 107 -222 259 -422 440 -582 586 -517 1422 -616 2110 -250 486 258
839 731 949 1273 125 608 -68 1245 -508 1686 -392 391 -945 591 -1493 538z
m72 -537 c0 -29 -103 -136 -188 -195 -137 -96 -278 -166 -522 -257 l-125 -47
-6 -39 c-10 -64 -20 -1394 -10 -1394 5 0 77 25 160 55 83 30 158 55 165 55 20
0 438 -369 431 -381 -8 -12 -1092 -12 -1099 0 -4 5 -9 383 -13 839 l-6 829 79
43 c121 66 259 155 359 230 89 67 225 200 260 253 l17 27 249 0 c235 0 249 -1
249 -18z m1422 -471 c3 -3 8 -380 10 -837 l3 -831 -51 -27 c-261 -137 -529
-340 -631 -478 l-35 -48 -243 0 c-161 0 -246 4 -250 11 -10 15 40 83 99 135
119 108 347 230 602 325 l141 52 6 390 c10 574 9 1037 -3 1037 -5 0 -78 -25
-161 -55 -83 -30 -155 -55 -160 -55 -4 0 -86 68 -181 151 -251 220 -250 219
-245 233 4 11 108 13 549 9 299 -3 546 -8 550 -12z m-1162 -350 c206 -64 350
-264 350 -485 0 -147 -47 -263 -145 -361 -205 -205 -525 -205 -730 0 -97 97
-145 216 -145 361 0 172 81 325 228 426 123 85 287 107 442 59z"/>
<path d="M1034 5159 c-98 -67 -185 -127 -191 -133 -14 -13 -64 -446 -53 -459
3 -4 26 8 51 27 38 30 68 79 217 350 94 173 172 320 172 326 0 5 -4 10 -8 10
-5 0 -89 -55 -188 -121z"/>
<path d="M5770 5268 c0 -7 76 -152 169 -323 141 -259 176 -316 214 -349 25
-21 50 -36 54 -33 5 3 -1 97 -14 214 -12 114 -23 215 -23 223 0 9 -81 70 -187
142 -222 148 -213 143 -213 126z"/>
<path d="M1356 5128 c-37 -28 -95 -83 -127 -122 -57 -67 -159 -250 -147 -261
3 -4 41 3 84 14 44 11 105 24 136 29 l57 9 -47 -59 c-188 -234 -506 -757 -488
-803 4 -11 16 -10 64 4 32 10 76 21 97 25 32 6 37 5 32 -8 -50 -130 -166 -557
-206 -761 -29 -146 -57 -362 -50 -384 3 -7 41 11 89 42 47 29 105 64 130 79
l45 26 0 -282 c0 -218 4 -310 18 -409 27 -187 88 -416 127 -477 8 -12 13 -10
37 12 37 34 152 108 170 108 7 0 13 -8 13 -17 0 -10 12 -63 26 -118 94 -370
275 -676 531 -901 318 -277 750 -446 1267 -495 165 -15 562 -6 706 16 706 109
1204 426 1483 945 75 140 163 388 182 513 4 26 11 50 16 53 13 8 105 -45 156
-90 55 -48 57 -47 101 87 72 217 103 457 103 800 0 154 4 247 10 247 15 0 129
-59 185 -96 28 -19 54 -34 58 -34 10 0 7 78 -9 186 -30 212 -117 568 -213 872
-16 50 -27 92 -23 92 10 0 155 -38 172 -45 38 -15 26 24 -50 166 -136 252
-268 452 -444 676 -18 23 -18 23 5 23 12 0 72 -11 132 -25 60 -14 112 -23 114
-20 17 16 -91 202 -167 287 -46 51 -169 148 -188 148 -7 0 -13 -10 -13 -22 0
-85 -86 -316 -146 -396 -30 -38 -31 -31 25 -192 134 -386 134 -842 2 -1240
-210 -630 -669 -1097 -1280 -1300 -131 -44 -107 -24 -297 -250 -62 -74 -110
-138 -108 -142 3 -4 12 -8 21 -8 15 0 340 166 1307 667 280 145 510 262 511
261 2 -2 4 -72 6 -157 l4 -154 -885 -339 c-486 -186 -889 -343 -894 -348 -6
-6 -4 -11 5 -15 8 -3 339 41 736 98 599 86 720 101 715 88 -3 -9 -24 -58 -48
-109 -31 -66 -48 -92 -61 -92 -75 0 -1287 -61 -1291 -64 -2 -3 3 -25 11 -50 8
-24 13 -47 9 -50 -7 -8 -352 -8 -583 1 l-187 6 15 44 c9 24 13 47 9 50 -3 3
-282 19 -618 34 -337 16 -631 29 -652 31 l-40 3 -43 99 c-24 54 -43 102 -41
105 2 4 311 -37 688 -90 377 -54 701 -99 720 -101 109 -10 -9 41 -845 361
l-880 337 -3 157 c-1 86 1 157 5 157 3 0 268 -135 587 -299 893 -460 1209
-621 1235 -628 38 -10 25 10 -131 201 l-143 174 -62 17 c-34 9 -110 37 -169
61 -475 193 -861 582 -1068 1076 -99 237 -144 445 -153 704 -10 300 30 551
128 799 11 28 9 35 -25 88 -55 85 -115 236 -156 388 -6 21 -16 39 -23 39 -7 0
-43 -23 -81 -52z m2032 -3982 c35 -16 77 -46 97 -67 31 -35 35 -45 35 -97 0
-114 -56 -186 -252 -326 l-108 -77 -90 18 -90 17 72 38 c40 21 105 62 143 91
l70 52 -95 6 c-114 7 -179 32 -236 90 -35 36 -39 45 -39 92 0 64 26 105 91
143 70 41 128 54 239 51 85 -3 109 -7 163 -31z m610 -248 l-3 -282 -70 -18
c-38 -9 -73 -18 -77 -18 -4 0 -9 108 -10 240 l-3 239 -50 -38 -49 -38 -52 30
-53 31 72 49 c40 28 83 59 97 68 19 14 45 18 113 19 l87 0 -2 -282z m414 57
c1 -118 2 -223 2 -232 1 -12 -13 -20 -49 -30 -27 -7 -56 -13 -62 -13 -10 0
-13 46 -13 195 0 107 -3 195 -6 195 -3 0 -25 -14 -48 -31 l-43 -30 -37 22
c-20 12 -36 25 -34 30 2 4 35 30 73 58 68 47 72 49 143 50 l72 1 2 -215z
m-1662 -45 c0 -132 -2 -240 -5 -240 -3 0 -35 7 -70 16 l-65 16 0 180 0 180
-48 -35 -49 -35 -46 25 -46 26 82 53 82 54 83 0 82 0 0 -240z"/>
<path d="M3151 1080 c-158 -39 -116 -190 54 -190 69 0 118 21 149 62 19 26 19
30 4 61 -26 55 -126 88 -207 67z"/>
<path d="M601 4178 c-81 -93 -141 -172 -141 -183 0 -29 58 -336 65 -343 6 -6
53 36 66 60 10 18 169 600 169 617 0 27 -27 1 -159 -151z"/>
<path d="M6240 4327 c0 -8 36 -149 81 -312 62 -232 86 -305 107 -331 15 -19
33 -34 40 -34 6 0 12 1 12 3 0 1 14 74 30 162 16 88 30 168 30 178 0 17 -270
338 -291 345 -5 2 -9 -3 -9 -11z"/>
<path d="M553 3428 c-5 -7 -43 -76 -83 -152 -65 -123 -72 -142 -63 -167 6 -14
59 -120 118 -235 l108 -208 23 30 c13 16 24 42 24 57 0 45 -100 671 -109 680
-4 4 -12 2 -18 -5z"/>
<path d="M6446 3413 c-3 -10 -33 -163 -67 -341 l-62 -323 18 -40 c10 -22 23
-38 28 -36 6 2 67 104 135 226 l125 224 -76 153 c-42 85 -81 154 -86 154 -5 0
-12 -8 -15 -17z"/>
<path d="M753 2478 c-6 -7 -38 -67 -73 -133 l-62 -120 182 -320 c100 -176 189
-327 197 -335 12 -13 16 -12 34 10 10 14 22 35 25 48 7 24 -272 862 -286 862
-4 0 -12 -6 -17 -12z"/>
<path d="M6220 2471 c-5 -11 -73 -204 -149 -429 l-139 -409 27 -42 c14 -22 29
-41 33 -41 6 0 388 662 388 673 0 8 -141 267 -145 267 -3 0 -9 -9 -15 -19z"/>
<path d="M3145 1960 c-4 -7 147 -249 181 -289 2 -2 33 2 69 9 l65 12 0 118 0
117 -93 7 c-51 3 -119 13 -151 21 -68 18 -63 17 -71 5z"/>
<path d="M3765 1949 c-17 -4 -80 -12 -140 -16 l-110 -8 -3 -115 -3 -115 67
-13 c37 -7 70 -9 74 -5 23 25 174 251 178 266 5 19 -13 21 -63 6z"/>
</g>
</svg>
